<svg viewBox="0 0 1440 1024" fill="none" xmlns="http://www.w3.org/2000/svg" preserveAspectRatio="none">
<path d="M-490.011 907.456L-438.856 976.483C-387.682 1046.35 -285.195 1183.11 -210.335 1180.81C-135.22 1177.63 -86.6152 1033.07 -28.5445 943.118C29.7811 852.275 99.4703 817.794 184.482 868.503C270.139 920.355 372.626 1057.11 449.555 1065.62C526.896 1074.05 579.405 949.877 648.018 914.968C716.886 879.165 802.974 930.301 883.925 959.809C965.443 990.054 1042.94 996.343 1107.38 939.622C1172.22 882.822 1224.73 758.648 1284.99 680.115C1345.42 600.28 1415.11 565.8 1448.52 547.355L1483.45 529.464L1583.41 1051.32L1546.82 1058.33C1510.36 1065.31 1436.77 1079.41 1364.13 1093.32C1291.09 1107.31 1217.49 1121.41 1144.86 1135.32C1071.81 1149.31 998.22 1163.4 925.586 1177.32C852.54 1191.31 778.946 1205.4 706.312 1219.32C633.267 1233.31 559.673 1247.4 487.038 1261.32C413.993 1275.31 340.399 1289.4 267.765 1303.31C194.719 1317.31 121.125 1331.4 48.491 1345.31C-24.5545 1359.3 -98.1482 1373.4 -170.783 1387.31C-243.828 1401.3 -317.422 1415.4 -353.054 1422.22L-390.056 1429.31L-490.011 907.456Z" fill="#9EDDF2" fill-opacity="0.4"/>
<path d="M1850.74 152.815L1791.91 70.4594C1732.98 -12.9089 1615.29 -176.049 1540.05 -172.193C1464.64 -167.257 1430.81 7.49516 1381.69 116.637C1332.42 226.859 1265.77 269.392 1174.73 209.587C1082.92 148.414 965.229 -14.7263 886.767 -23.8469C807.899 -32.8668 767.986 117.4 702.467 160.432C636.785 204.545 544.615 144.241 459.895 109.901C374.526 74.682 295.724 68.2451 236.707 137.476C177.283 206.808 137.37 357.075 84.8543 452.505C32.297 549.505 -34.3521 592.038 -66.1002 614.733L-99.4456 636.784L-255 9.96962L-218.84 0.996044C-182.816 -7.94396 -110.091 -25.992 -38.3132 -43.8048C33.8707 -61.7184 106.596 -79.7664 178.374 -97.5792C250.558 -115.493 323.283 -133.541 395.061 -151.354C467.244 -169.267 539.97 -187.315 611.747 -205.128C683.931 -223.042 756.657 -241.09 828.434 -258.902C900.618 -276.816 973.344 -294.864 1045.12 -312.677C1117.3 -330.59 1190.03 -348.638 1261.81 -366.451C1333.99 -384.365 1406.72 -402.413 1478.49 -420.226C1550.68 -438.139 1623.4 -456.187 1658.62 -464.926L1695.18 -474L1850.74 152.815Z" fill="#9EDDF2" fill-opacity="0.4"/>
</svg>
